<?xml version="1.0" standalone="no"?>
<!DOCTYPE svg PUBLIC "-//W3C//DTD SVG 20010904//EN"
 "http://www.w3.org/TR/2001/REC-SVG-20010904/DTD/svg10.dtd">
<svg version="1.0" xmlns="http://www.w3.org/2000/svg"
 width="190.000000pt" height="190.000000pt" viewBox="0 0 190.000000 190.000000"
 preserveAspectRatio="xMidYMid meet">
<metadata>
Created by potrace 1.14, written by Peter Selinger 2001-2017
</metadata>
<g transform="translate(0.000000,190.000000) scale(0.100000,-0.100000)"
fill="#000000" stroke="none">
<path d="M914 1829 c-4 -6 -12 -34 -18 -62 -10 -46 -14 -51 -51 -64 -27 -10
-65 -13 -114 -10 -66 4 -76 7 -93 31 -30 40 -52 35 -44 -11 3 -21 6 -48 6 -61
0 -30 46 -72 78 -72 22 0 24 -3 18 -32 -3 -18 -9 -68 -12 -111 l-7 -77 -31 2
c-44 3 -56 -8 -56 -48 0 -19 -7 -49 -16 -66 -23 -45 -15 -132 17 -180 25 -39
84 -78 116 -78 26 0 163 -73 174 -93 7 -11 -3 -33 -34 -78 -23 -35 -47 -64
-53 -66 -16 -5 -34 42 -34 87 0 35 -3 41 -27 47 -48 13 -294 9 -338 -6 -64
-21 -221 -80 -249 -93 -45 -20 -29 -58 25 -58 38 0 96 -38 113 -75 15 -31 21
-35 57 -35 56 0 82 -15 69 -40 -15 -28 -15 -94 0 -132 8 -18 28 -56 46 -85
l33 -52 -48 2 c-59 2 -85 -17 -103 -75 -10 -34 -9 -42 9 -66 17 -23 28 -27 79
-30 32 -1 73 -9 89 -16 17 -8 41 -19 55 -25 14 -6 32 -16 42 -23 13 -10 30 -7
86 15 38 15 78 36 88 46 18 16 35 18 172 13 140 -4 154 -6 179 -28 26 -22 127
-64 155 -64 8 0 23 9 33 20 10 11 28 20 39 20 12 0 30 6 41 14 11 7 52 15 92
18 40 2 75 6 78 9 3 4 9 20 14 36 18 63 -40 121 -109 111 -17 -3 -33 -1 -36 4
-3 5 10 30 29 56 38 53 67 120 67 156 0 13 -9 35 -21 50 -11 14 -17 30 -14 36
3 5 31 10 61 10 44 0 54 3 54 17 0 37 49 82 108 99 31 9 61 19 65 23 19 18
-10 39 -91 69 -153 56 -284 83 -409 84 -129 1 -143 -5 -143 -62 0 -84 -24 -91
-75 -22 -22 30 -35 59 -35 79 0 27 5 33 34 43 19 6 40 17 46 25 6 8 33 21 60
30 63 21 123 65 156 114 22 34 25 48 21 93 -6 65 -26 149 -39 166 -6 6 -28 12
-49 12 l-39 0 -1 58 c0 31 -3 66 -5 77 -13 49 -9 60 27 79 20 11 42 28 49 39
11 18 17 124 7 134 -3 2 -31 -11 -63 -29 -50 -28 -69 -33 -124 -33 -93 0 -121
17 -143 88 -14 43 -23 57 -37 57 -10 0 -22 -5 -26 -11z"/>
</g>
</svg>
